<svg width="33" height="51" fill="none" xmlns="http://www.w3.org/2000/svg"><path d="M31.752 35.896c-.58-1.302-2.082-2.004-3.868-1.809-1.702.186-3.161.908-4.391 2.075-1.535 1.458-1.763 2.741-.883 4.638-1.444.626-2.643.172-3.605-1.286-.884-1.338-1.712-2.738-2.766-3.934-.587-.667-1.21-1.254-3.682-2.493a10.419 10.419 0 0 0-.398-.585c-.557-.757-1.137-1.516-1.56-2.348-.926-1.826-.402-3.43 1.47-4.219 1.065-.448 2.276-.542 3.399-.874.514-.152 1.207-.37 1.416-.768.803-1.532 1.442-3.15 2.257-4.997-5.184-.115-8.625 1.852-10.249 6.786-1.145-3.222-.345-6.21 2.122-8.35 2.604-2.257 5.783-3.051 9.085-3.558.58-.089 1.436-.297 1.629-.704 1.935-4.077 3.758-8.207 5.653-12.413-.422-.13-.634-.243-.852-.256-5.675-.325-11.04.72-15.878 3.816C2.098 10.088.301 19.223 6.218 27.472c1.328 1.851 3.013 3.454 4.593 5.113 1.722 1.808 1.97 3.623.635 5.434-2.36-1.833-4.22-1.927-6.742-.256-2.021 1.339-3.493 3.139-4.298 5.45-.844 2.425-.348 4.743 1.279 5.968 1.736 1.308 3.907 1.222 6.066-.334 3.158-2.274 4.968-5.45 5.902-9.16a8.643 8.643 0 0 0 .268-2.186l.024.067c.814-.22 1.643-.583 3.435 1.42.436.487.928.933 1.356 1.432 1.23 1.431 2.775 2.184 4.665 2.146 2.675-.055 5.125-.79 7.172-2.586 1.399-1.229 1.798-2.695 1.18-4.084Z" fill="#CB0000"/></svg>