<svg width="20" height="21" fill="none" xmlns="http://www.w3.org/2000/svg"><path d="M5.784 20.227a5.796 5.796 0 0 1-5.79-5.79V6.216a5.796 5.796 0 0 1 5.79-5.79h8.223a5.796 5.796 0 0 1 5.79 5.79v8.223a5.796 5.796 0 0 1-5.79 5.79H5.784ZM1.84 6.215v8.223a3.949 3.949 0 0 0 3.944 3.944h8.223a3.948 3.948 0 0 0 3.943-3.945V6.216a3.948 3.948 0 0 0-3.943-3.944H5.784A3.949 3.949 0 0 0 1.84 6.215Zm2.937 4.111a5.124 5.124 0 0 1 5.118-5.118 5.125 5.125 0 0 1 5.119 5.118 5.125 5.125 0 0 1-5.119 5.119 5.124 5.124 0 0 1-5.118-5.119Zm1.846 0a3.275 3.275 0 0 0 3.272 3.272 3.276 3.276 0 0 0 3.273-3.272 3.276 3.276 0 0 0-3.273-3.273 3.276 3.276 0 0 0-3.272 3.273Zm7.33-5.281a1.234 1.234 0 1 1 2.467 0 1.234 1.234 0 0 1-2.467 0Z" fill="#fff"/></svg>