<svg width="23" height="17" fill="none" xmlns="http://www.w3.org/2000/svg"><path d="M11.242 16.124c-.07 0-7.005-.006-8.727-.467A2.797 2.797 0 0 1 .54 13.683C.079 11.96.073 8.342.073 8.306c0-.037.006-3.655.467-5.377A2.799 2.799 0 0 1 2.515.954C4.237.493 11.173.487 11.243.487c.07 0 7.004.006 8.726.467a2.799 2.799 0 0 1 1.976 1.975c.46 1.722.466 5.34.466 5.377 0 .036-.005 3.654-.466 5.377a2.797 2.797 0 0 1-1.976 1.974c-1.722.461-8.657.467-8.727.467ZM9.008 4.955v6.702l5.804-3.351-5.804-3.35Z" fill="#fff"/></svg>