<svg width="23" height="19" fill="none" xmlns="http://www.w3.org/2000/svg"><path d="M7.034 18.438c8.441 0 13.057-6.993 13.057-13.057 0-.199-.004-.397-.013-.594a9.337 9.337 0 0 0 2.29-2.376 9.16 9.16 0 0 1-2.636.723A4.604 4.604 0 0 0 21.75.595a9.196 9.196 0 0 1-2.914 1.114 4.59 4.59 0 0 0-7.82 4.185A13.028 13.028 0 0 1 1.556 1.1a4.573 4.573 0 0 0-.62 2.306c0 1.592.81 2.998 2.041 3.82A4.555 4.555 0 0 1 .9 6.652l-.001.059a4.591 4.591 0 0 0 3.682 4.498 4.6 4.6 0 0 1-2.073.08 4.594 4.594 0 0 0 4.287 3.187 9.208 9.208 0 0 1-5.7 1.964c-.37 0-.735-.021-1.094-.064a12.992 12.992 0 0 0 7.034 2.062Z" fill="#fff"/></svg>